<svg width="74" height="75" viewBox="0 0 74 75" fill="none" xmlns="http://www.w3.org/2000/svg">
<path d="M64.9705 34.9269L39.5653 9.55187C38.8567 8.84409 37.9276 8.48975 36.9994 8.48975C36.0712 8.48975 35.1421 8.84409 34.4334 9.55187L9.02821 34.9269C7.61096 36.3461 7.68174 38.5664 9.09898 39.9819C10.5199 41.4047 12.5967 41.6141 14.0185 40.194L15.2579 38.9552V62.8648C15.2579 64.8685 16.8811 66.4897 18.8873 66.4897H33.4045V51.9897H40.6632V66.4897H55.1804C57.1865 66.4897 58.8097 64.8685 58.8097 62.8648V39.0258L59.894 40.1088C61.3112 41.5244 63.477 41.3975 64.8988 39.981C66.317 38.5664 66.3914 36.3424 64.9705 34.9269Z" fill="url(#paint0_linear_423_277)"/>
<defs>
<linearGradient id="paint0_linear_423_277" x1="8" y1="36.1088" x2="66" y2="36.1088" gradientUnits="userSpaceOnUse">
<stop stop-color="#F0A62D"/>
<stop offset="0.484304" stop-color="#FFF57B"/>
<stop offset="1" stop-color="#E3A630"/>
</linearGradient>
</defs>
</svg>
