<svg width="74" height="74" viewBox="0 0 74 74" fill="none" xmlns="http://www.w3.org/2000/svg">
<path fill-rule="evenodd" clip-rule="evenodd" d="M37 13C30.482 13 29.6647 13.0276 27.1048 13.1444C24.5503 13.2609 22.8057 13.6667 21.2791 14.26C19.7009 14.8733 18.3625 15.6939 17.0281 17.0281C15.6939 18.3625 14.8733 19.7009 14.26 21.2791C13.6667 22.8057 13.2609 24.5503 13.1444 27.1048C13.0276 29.6647 13 30.482 13 37.0002C13 43.5181 13.0276 44.3353 13.1444 46.8953C13.2609 49.4497 13.6667 51.1945 14.26 52.721C14.8733 54.2993 15.6939 55.6377 17.0281 56.9719C18.3625 58.3061 19.7009 59.1268 21.2791 59.7402C22.8057 60.3334 24.5503 60.7391 27.1048 60.8558C29.6647 60.9724 30.482 61 37 61C43.5181 61 44.3353 60.9724 46.8951 60.8558C49.4497 60.7391 51.1943 60.3334 52.721 59.7402C54.2991 59.1268 55.6375 58.3061 56.9719 56.9719C58.3062 55.6377 59.1268 54.2993 59.7402 52.721C60.3334 51.1945 60.7391 49.4497 60.8556 46.8953C60.9724 44.3353 61 43.5181 61 37.0002C61 30.482 60.9724 29.6647 60.8556 27.1048C60.7391 24.5503 60.3334 22.8057 59.7402 21.2791C59.1268 19.7009 58.3062 18.3625 56.9719 17.0281C55.6375 15.6939 54.2991 14.8733 52.721 14.26C51.1943 13.6667 49.4497 13.2609 46.8951 13.1444C44.3353 13.0276 43.5181 13 37 13ZM29 37.0002C29 41.4184 32.5817 45.0001 37 45.0001C41.4184 45.0001 45.0001 41.4184 45.0001 37.0002C45.0001 32.5817 41.4184 29 37 29C32.5817 29 29 32.5817 29 37.0002ZM24.6757 37.0002C24.6757 30.1934 30.1934 24.6757 37 24.6757C43.8066 24.6757 49.3243 30.1934 49.3243 37.0002C49.3243 43.8065 43.8066 49.3243 37 49.3243C30.1934 49.3243 24.6757 43.8065 24.6757 37.0002ZM49.8113 27.0688C51.402 27.0688 52.6914 25.7794 52.6914 24.1888C52.6914 22.5982 51.402 21.3087 49.8113 21.3087C48.2208 21.3087 46.9313 22.5982 46.9313 24.1888C46.9313 25.7794 48.2208 27.0688 49.8113 27.0688Z" fill="url(#paint0_linear_423_280)"/>
<defs>
<linearGradient id="paint0_linear_423_280" x1="13" y1="35.8571" x2="61" y2="35.8571" gradientUnits="userSpaceOnUse">
<stop stop-color="#F0A62D"/>
<stop offset="0.484304" stop-color="#FFF57B"/>
<stop offset="1" stop-color="#E3A630"/>
</linearGradient>
</defs>
</svg>
