<svg width="74" height="74" viewBox="0 0 74 74" fill="none" xmlns="http://www.w3.org/2000/svg">
<path d="M17.2796 10.3201V14.9601H12.6396V63.6801H25.3996V53.2401H30.0396V63.6801H42.7996V14.9601H38.1596V10.3201H17.2796ZM19.5996 19.6001H21.9196V21.9201H19.5996V19.6001ZM24.2396 19.6001H26.5596V21.9201H24.2396V19.6001ZM28.8796 19.6001H31.1996V21.9201H28.8796V19.6001ZM33.5196 19.6001H35.8396V21.9201H33.5196V19.6001ZM45.1196 24.2401V28.8801H47.4396V31.2001H45.1196V33.5201H47.4396V35.8401H45.1196V38.1601H47.4396V40.4801H45.1196V42.8001H47.4396V45.1201H45.1196V47.4401H47.4396V49.7601H45.1196V52.0801H47.4396V54.4001H45.1196V56.7201H47.4396V59.0401H45.1196V63.6801H61.3596V24.2401H45.1196ZM19.5996 25.4001H21.9196V30.0401H19.5996V25.4001ZM24.2396 25.4001H26.5596V30.0401H24.2396V25.4001ZM28.8796 25.4001H31.1996V30.0401H28.8796V25.4001ZM33.5196 25.4001H35.8396V30.0401H33.5196V25.4001ZM49.7596 28.8801H52.0796V31.2001H49.7596V28.8801ZM54.3996 28.8801H56.7196V31.2001H54.3996V28.8801ZM19.5996 32.3601H21.9196V37.0001H19.5996V32.3601ZM24.2396 32.3601H26.5596V37.0001H24.2396V32.3601ZM28.8796 32.3601H31.1996V37.0001H28.8796V32.3601ZM33.5196 32.3601H35.8396V37.0001H33.5196V32.3601ZM49.7596 33.5201H52.0796V35.8401H49.7596V33.5201ZM54.3996 33.5201H56.7196V35.8401H54.3996V33.5201ZM49.7596 38.1601H52.0796V40.4801H49.7596V38.1601ZM54.3996 38.1601H56.7196V40.4801H54.3996V38.1601ZM19.5996 39.3201H21.9196V43.9601H19.5996V39.3201ZM24.2396 39.3201H26.5596V43.9601H24.2396V39.3201ZM28.8796 39.3201H31.1996V43.9601H28.8796V39.3201ZM33.5196 39.3201H35.8396V43.9601H33.5196V39.3201ZM49.7596 42.8001H52.0796V45.1201H49.7596V42.8001ZM54.3996 42.8001H56.7196V45.1201H54.3996V42.8001ZM19.5996 46.2801H21.9196V50.9201H19.5996V46.2801ZM24.2396 46.2801H26.5596V50.9201H24.2396V46.2801ZM28.8796 46.2801H31.1996V50.9201H28.8796V46.2801ZM33.5196 46.2801H35.8396V50.9201H33.5196V46.2801ZM49.7596 47.4401H52.0796V49.7601H49.7596V47.4401ZM54.3996 47.4401H56.7196V49.7601H54.3996V47.4401ZM49.7596 52.0801H52.0796V54.4001H49.7596V52.0801ZM54.3996 52.0801H56.7196V54.4001H54.3996V52.0801ZM19.5996 53.2401H21.9196V59.0401H19.5996V53.2401ZM33.5196 53.2401H35.8396V59.0401H33.5196V53.2401ZM49.7596 56.7201H52.0796V59.0401H49.7596V56.7201ZM54.3996 56.7201H56.7196V59.0401H54.3996V56.7201Z" fill="url(#paint0_linear_438_196)"/>
<defs>
<linearGradient id="paint0_linear_438_196" x1="12.6396" y1="35.7296" x2="61.3596" y2="35.7296" gradientUnits="userSpaceOnUse">
<stop stop-color="#F0A62D"/>
<stop offset="0.484304" stop-color="#FFF57B"/>
<stop offset="1" stop-color="#E3A630"/>
</linearGradient>
</defs>
</svg>
