<svg width="48" height="48" viewBox="0 0 48 48" fill="none" xmlns="http://www.w3.org/2000/svg">
<path d="M24 0C10.7438 0 0 10.7438 0 24C0 37.2562 10.7438 48 24 48C37.2562 48 48 37.2562 48 24C48 10.7438 37.2562 0 24 0ZM30.2969 19.9313L30.025 24.5219H26.3406V39.9906H19.6906V24.5219H17.2062V19.9313H19.6906V17.5219C19.6906 16.4625 19.6892 14.5115 20.8161 13.1612C21.9896 11.7549 23.1905 11.2798 25.1124 11.2798C28.2436 11.2798 30.2969 12.4681 30.2969 12.4681L30.1656 16.1156C30.1656 16.1156 29.1344 15.8156 28.1687 15.8156C27.2031 15.8156 26.3406 16.1625 26.3406 17.1281V19.9313H30.2969Z" fill="url(#paint0_linear_686_362)"/>
<defs>
<linearGradient id="paint0_linear_686_362" x1="-3.22757e-07" y1="22.8571" x2="48" y2="22.8571" gradientUnits="userSpaceOnUse">
<stop stop-color="#F0A62D"/>
<stop offset="0.484304" stop-color="#FFF57B"/>
<stop offset="1" stop-color="#E3A630"/>
</linearGradient>
</defs>
</svg>
