<svg width="48" height="49" viewBox="0 0 48 49" fill="none" xmlns="http://www.w3.org/2000/svg">
<path fill-rule="evenodd" clip-rule="evenodd" d="M24 0.489746C17.482 0.489746 16.6647 0.517374 14.1048 0.634173C11.5503 0.750686 9.80569 1.15643 8.2791 1.74976C6.70088 2.36301 5.36246 3.18366 4.02814 4.51788C2.69389 5.8522 1.87326 7.19063 1.26002 8.76885C0.666687 10.2954 0.260941 12.0401 0.144427 14.5946C0.0276278 17.1545 0 17.9718 0 24.4899C0 31.0078 0.0276278 31.8251 0.144427 34.3851C0.260941 36.9395 0.666687 38.6842 1.26002 40.2107C1.87326 41.789 2.69389 43.1274 4.02814 44.4617C5.36246 45.7959 6.70088 46.6166 8.2791 47.2299C9.80569 47.8231 11.5503 48.2289 14.1048 48.3455C16.6647 48.4621 17.482 48.4897 24 48.4897C30.5181 48.4897 31.3353 48.4621 33.8951 48.3455C36.4497 48.2289 38.1943 47.8231 39.721 47.2299C41.2991 46.6166 42.6375 45.7959 43.9719 44.4617C45.3062 43.1274 46.1268 41.789 46.7402 40.2107C47.3334 38.6842 47.7391 36.9395 47.8556 34.3851C47.9724 31.8251 48 31.0078 48 24.4899C48 17.9718 47.9724 17.1545 47.8556 14.5946C47.7391 12.0401 47.3334 10.2954 46.7402 8.76885C46.1268 7.19063 45.3062 5.8522 43.9719 4.51788C42.6375 3.18366 41.2991 2.36301 39.721 1.74976C38.1943 1.15643 36.4497 0.750686 33.8951 0.634173C31.3353 0.517374 30.5181 0.489746 24 0.489746ZM16 24.4899C16 28.9081 19.5817 32.4899 24 32.4899C28.4184 32.4899 32.0001 28.9081 32.0001 24.4899C32.0001 20.0715 28.4184 16.4898 24 16.4898C19.5817 16.4898 16 20.0715 16 24.4899ZM11.6757 24.4899C11.6757 17.6832 17.1934 12.1654 24 12.1654C30.8066 12.1654 36.3243 17.6832 36.3243 24.4899C36.3243 31.2963 30.8066 36.814 24 36.814C17.1934 36.814 11.6757 31.2963 11.6757 24.4899ZM36.8113 14.5585C38.402 14.5585 39.6914 13.2691 39.6914 11.6785C39.6914 10.0879 38.402 8.79848 36.8113 8.79848C35.2208 8.79848 33.9313 10.0879 33.9313 11.6785C33.9313 13.2691 35.2208 14.5585 36.8113 14.5585Z" fill="url(#paint0_linear_686_365)"/>
<defs>
<linearGradient id="paint0_linear_686_365" x1="-3.22757e-07" y1="23.3469" x2="48" y2="23.3469" gradientUnits="userSpaceOnUse">
<stop stop-color="#F0A62D"/>
<stop offset="0.484304" stop-color="#FFF57B"/>
<stop offset="1" stop-color="#E3A630"/>
</linearGradient>
</defs>
</svg>
