<svg width="75" height="74" viewBox="0 0 75 74" fill="none" xmlns="http://www.w3.org/2000/svg">
<path d="M26.1934 10.0379C26.1934 10.0379 25.3255 8 23.9999 8C22.6953 8 22.0167 8.60373 21.5643 9.02027C21.1119 9.43682 13.5423 15.6718 13.5423 15.6718C13.5423 15.6718 11.3409 17.599 11.5092 21.224C11.6512 24.849 12.3587 30.0084 16.0304 37.1951C19.6759 44.366 28.7999 55.3227 34.5653 59.1745C34.5653 59.1745 39.9071 63.2819 44.8781 64.9507C46.3221 65.4068 49.21 66 49.8834 66C50.5672 66 51.7744 66 53.1605 64.985C54.5703 63.9595 62.4792 57.5847 62.4792 57.5847C62.4792 57.5847 64.415 55.8315 62.1663 53.7936C59.9069 51.7557 53.0475 47.2238 51.5798 46.0322C50.1096 44.8221 48.0159 45.3546 47.1112 46.1745C46.209 46.9997 44.5967 48.3575 44.3995 48.5288C44.1049 48.7555 43.2974 49.4911 42.3926 49.1246C41.2406 48.6685 36.5168 46.0981 32.1376 40.0925C27.7847 34.0921 27.306 32.1306 26.6563 30.011C26.5461 29.6977 26.5446 29.3562 26.652 29.0419C26.7594 28.7276 26.9694 28.4588 27.2481 28.2789C27.9004 27.8255 30.3017 25.8192 30.3017 25.8192C30.3017 25.8192 31.8562 24.2822 31.2065 22.471C30.5569 20.6598 26.1934 10.0379 26.1934 10.0379Z" fill="url(#paint0_linear_423_278)"/>
<defs>
<linearGradient id="paint0_linear_423_278" x1="11.5" y1="35.6191" x2="63.2538" y2="35.6191" gradientUnits="userSpaceOnUse">
<stop stop-color="#F0A62D"/>
<stop offset="0.484304" stop-color="#FFF57B"/>
<stop offset="1" stop-color="#E3A630"/>
</linearGradient>
</defs>
</svg>
