<svg width="74" height="74" viewBox="0 0 74 74" fill="none" xmlns="http://www.w3.org/2000/svg">
<path d="M37 8C21.9562 8 9.8125 20.1437 9.8125 35.1875C9.8125 41.35 11.8062 47.15 15.6125 51.8625L11.8062 63.4625C11.625 64.1875 11.8063 64.9125 12.35 65.4563C12.5313 65.8188 13.075 66 13.4375 66C13.6188 66 13.9813 66 14.1625 65.8187L26.6688 60.2C29.9313 61.65 33.375 62.375 37 62.375C52.0438 62.375 64.1875 50.2313 64.1875 35.1875C64.1875 20.1437 52.0438 8 37 8ZM52.7688 45.1562C52.0438 47.3313 49.325 49.1437 46.9688 49.5062C46.425 49.6875 45.8813 49.6875 45.1562 49.6875C43.7062 49.6875 41.5312 49.325 37.725 47.6937C33.375 45.8812 29.025 42.075 25.5812 37.1813V37C24.4937 35.3688 22.5 32.2875 22.5 29.025C22.5 25.0375 24.4937 23.0438 25.2188 22.1375C26.125 21.2313 27.3937 20.6875 28.8438 20.6875C29.2063 20.6875 29.3875 20.6875 29.75 20.6875C31.0187 20.6875 31.925 21.05 32.8312 22.8625L33.5563 24.3125C34.1 25.7625 34.825 27.3938 35.0062 27.575C35.55 28.6625 35.55 29.5687 35.0062 30.475C34.825 31.0187 34.4625 31.3813 34.1 31.7438C33.9187 32.1063 33.7375 32.2875 33.5563 32.2875C33.375 32.4687 33.375 32.4688 33.1937 32.65C33.7375 33.5563 34.825 35.1875 36.275 36.4562C38.45 38.45 40.0813 38.9937 40.9875 39.3562C41.35 38.9937 41.7125 38.2687 42.2562 37.725L42.4375 37.3625C43.3438 36.0938 44.7938 35.7313 46.2438 36.275C46.9688 36.6375 50.9563 38.45 50.9563 38.45L51.3187 38.6312C51.8625 38.9937 52.5875 39.175 52.95 39.9C53.675 41.5313 53.1313 43.8875 52.7688 45.1562Z" fill="url(#paint0_linear_423_265)"/>
<defs>
<linearGradient id="paint0_linear_423_265" x1="9.8125" y1="35.6191" x2="64.1875" y2="35.6191" gradientUnits="userSpaceOnUse">
<stop stop-color="#F0A62D"/>
<stop offset="0.484304" stop-color="#FFF57B"/>
<stop offset="1" stop-color="#E3A630"/>
</linearGradient>
</defs>
</svg>
