<svg width="46" height="48" viewBox="0 0 46 48" fill="none" xmlns="http://www.w3.org/2000/svg">
<path d="M23 0C10.55 0 0.5 10.05 0.5 22.5C0.5 27.6 2.15 32.4 5.3 36.3L2.15 45.9C2 46.5 2.15 47.1 2.6 47.55C2.75 47.85 3.2 48 3.5 48C3.65 48 3.95 48 4.1 47.85L14.45 43.2C17.15 44.4 20 45 23 45C35.45 45 45.5 34.95 45.5 22.5C45.5 10.05 35.45 0 23 0ZM36.05 30.75C35.45 32.55 33.2 34.05 31.25 34.35C30.8 34.5 30.35 34.5 29.75 34.5C28.55 34.5 26.75 34.2 23.6 32.85C20 31.35 16.4 28.2 13.55 24.15V24C12.65 22.65 11 20.1 11 17.4C11 14.1 12.65 12.45 13.25 11.7C14 10.95 15.05 10.5 16.25 10.5C16.55 10.5 16.7 10.5 17 10.5C18.05 10.5 18.8 10.8 19.55 12.3L20.15 13.5C20.6 14.7 21.2 16.05 21.35 16.2C21.8 17.1 21.8 17.85 21.35 18.6C21.2 19.05 20.9 19.35 20.6 19.65C20.45 19.95 20.3 20.1 20.15 20.1C20 20.25 20 20.25 19.85 20.4C20.3 21.15 21.2 22.5 22.4 23.55C24.2 25.2 25.55 25.65 26.3 25.95C26.6 25.65 26.9 25.05 27.35 24.6L27.5 24.3C28.25 23.25 29.45 22.95 30.65 23.4C31.25 23.7 34.55 25.2 34.55 25.2L34.85 25.35C35.3 25.65 35.9 25.8 36.2 26.4C36.8 27.75 36.35 29.7 36.05 30.75Z" fill="url(#paint0_linear_686_366)"/>
<defs>
<linearGradient id="paint0_linear_686_366" x1="0.5" y1="22.8571" x2="45.5" y2="22.8571" gradientUnits="userSpaceOnUse">
<stop stop-color="#F0A62D"/>
<stop offset="0.484304" stop-color="#FFF57B"/>
<stop offset="1" stop-color="#E3A630"/>
</linearGradient>
</defs>
</svg>
